<?xml version="1.0" encoding="UTF-8"?>
<svg id="Layer_1" xmlns="http://www.w3.org/2000/svg" xmlns:xlink="http://www.w3.org/1999/xlink" version="1.1" viewBox="0 0 923 296.86">
  <!-- Generator: Adobe Illustrator 29.0.1, SVG Export Plug-In . SVG Version: 2.1.0 Build 192)  -->
  <defs>
    <style>
      .st0, .st1, .st2, .st3, .st4, .st5, .st6, .st7, .st8, .st9 {
        fill: none;
      }

      .st10 {
        font-size: 16px;
      }

      .st10, .st11, .st12, .st13, .st14 {
        font-family: Helvetica, Helvetica;
      }

      .st11, .st13, .st14 {
        font-size: 14px;
      }

      .st12 {
        font-size: 13.2px;
      }

      .st15 {
        fill: #595959;
      }

      .st1 {
        stroke-width: 2.13px;
      }

      .st1, .st2, .st3, .st4, .st5, .st6, .st8, .st9 {
        stroke-linejoin: round;
      }

      .st1, .st2, .st3, .st6, .st7 {
        stroke: #000;
      }

      .st1, .st5, .st6 {
        stroke-linecap: round;
      }

      .st16 {
        fill: #e5e5e5;
      }

      .st13, .st17 {
        letter-spacing: 0em;
      }

      .st2, .st6 {
        stroke-width: .75px;
      }

      .st3, .st4, .st5, .st7, .st8 {
        stroke-width: 1.07px;
      }

      .st18 {
        clip-path: url(#clippath-17);
      }

      .st19 {
        clip-path: url(#clippath-19);
      }

      .st20 {
        clip-path: url(#clippath-11);
      }

      .st21 {
        clip-path: url(#clippath-16);
      }

      .st22 {
        clip-path: url(#clippath-18);
      }

      .st23 {
        clip-path: url(#clippath-10);
      }

      .st24 {
        clip-path: url(#clippath-15);
      }

      .st25 {
        clip-path: url(#clippath-13);
      }

      .st26 {
        clip-path: url(#clippath-14);
      }

      .st27 {
        clip-path: url(#clippath-12);
      }

      .st28 {
        clip-path: url(#clippath-31);
      }

      .st29 {
        clip-path: url(#clippath-32);
      }

      .st30 {
        clip-path: url(#clippath-33);
      }

      .st31 {
        clip-path: url(#clippath-34);
      }

      .st32 {
        clip-path: url(#clippath-35);
      }

      .st33 {
        clip-path: url(#clippath-30);
      }

      .st34 {
        clip-path: url(#clippath-36);
      }

      .st35 {
        clip-path: url(#clippath-27);
      }

      .st36 {
        clip-path: url(#clippath-29);
      }

      .st37 {
        clip-path: url(#clippath-26);
      }

      .st38 {
        clip-path: url(#clippath-28);
      }

      .st39 {
        clip-path: url(#clippath-20);
      }

      .st40 {
        clip-path: url(#clippath-21);
      }

      .st41 {
        clip-path: url(#clippath-22);
      }

      .st42 {
        clip-path: url(#clippath-23);
      }

      .st43 {
        clip-path: url(#clippath-24);
      }

      .st44 {
        clip-path: url(#clippath-25);
      }

      .st4 {
        stroke: #333;
      }

      .st45 {
        clip-path: url(#clippath-1);
      }

      .st46 {
        clip-path: url(#clippath-3);
      }

      .st47 {
        clip-path: url(#clippath-4);
      }

      .st48 {
        clip-path: url(#clippath-2);
      }

      .st49 {
        clip-path: url(#clippath-7);
      }

      .st50 {
        clip-path: url(#clippath-6);
      }

      .st51 {
        clip-path: url(#clippath-9);
      }

      .st52 {
        clip-path: url(#clippath-8);
      }

      .st53 {
        clip-path: url(#clippath-5);
      }

      .st5 {
        stroke: #fff;
      }

      .st14, .st54 {
        letter-spacing: .01em;
      }

      .st55 {
        letter-spacing: 3.96em;
      }

      .st56 {
        letter-spacing: 3.96em;
      }

      .st57 {
        letter-spacing: 3.96em;
      }

      .st58 {
        fill: #fff;
      }

      .st7 {
        stroke-miterlimit: 10;
      }

      .st8, .st9 {
        stroke: #ebebeb;
      }

      .st59 {
        letter-spacing: -.03em;
      }

      .st60 {
        letter-spacing: -.03em;
      }

      .st61 {
        letter-spacing: -.02em;
      }

      .st62 {
        letter-spacing: -.05em;
      }

      .st63 {
        letter-spacing: -.03em;
      }

      .st64 {
        letter-spacing: 0em;
      }

      .st65 {
        fill: #333;
      }

      .st66 {
        letter-spacing: .03em;
      }

      .st67 {
        letter-spacing: .03em;
      }

      .st68 {
        letter-spacing: .02em;
      }

      .st69 {
        letter-spacing: .01em;
      }

      .st70 {
        clip-path: url(#clippath);
      }

      .st71 {
        letter-spacing: .01em;
      }

      .st72 {
        letter-spacing: .01em;
      }

      .st73 {
        letter-spacing: .02em;
      }

      .st74 {
        letter-spacing: 0em;
      }

      .st75 {
        letter-spacing: 0em;
      }

      .st9 {
        stroke-width: .53px;
      }

      .st76 {
        letter-spacing: 0em;
      }

      .st77 {
        letter-spacing: 0em;
      }

      .st78 {
        letter-spacing: 0em;
      }

      .st79 {
        letter-spacing: 0em;
      }

      .st80 {
        letter-spacing: 0em;
      }

      .st81 {
        letter-spacing: 0em;
      }
    </style>
    <clipPath id="clippath">
      <rect class="st0" x="5.48" y="20.34" width="301.18" height="271.04"/>
    </clipPath>
    <clipPath id="clippath-1">
      <rect class="st0" x="77.17" y="38.05" width="224.01" height="217.84"/>
    </clipPath>
    <clipPath id="clippath-2">
      <rect class="st0" x="77.17" y="210.86" width="224.01" height="1"/>
    </clipPath>
    <clipPath id="clippath-3">
      <rect class="st0" x="77.17" y="141.86" width="224.01" height="1"/>
    </clipPath>
    <clipPath id="clippath-4">
      <rect class="st0" x="77.17" y="71.86" width="224.01" height="2"/>
    </clipPath>
    <clipPath id="clippath-5">
      <rect class="st0" x="77.17" y="244.86" width="224.01" height="2"/>
    </clipPath>
    <clipPath id="clippath-6">
      <rect class="st0" x="77.17" y="175.86" width="224.01" height="2"/>
    </clipPath>
    <clipPath id="clippath-7">
      <rect class="st0" x="77.17" y="106.86" width="224.01" height="2"/>
    </clipPath>
    <clipPath id="clippath-8">
      <rect class="st0" x="77.17" y="38.05" width="224.01" height=".81"/>
    </clipPath>
    <clipPath id="clippath-9">
      <rect class="st0" x="137" y="23.22" width="2" height="232.67"/>
    </clipPath>
    <clipPath id="clippath-10">
      <rect class="st0" x="239" y="23.22" width="2" height="232.67"/>
    </clipPath>
    <clipPath id="clippath-11">
      <rect class="st0" x="77.17" y="23.22" width="224.01" height="232.67"/>
    </clipPath>
    <clipPath id="clippath-12">
      <rect class="st0" x="306.66" y="20.34" width="301.18" height="271.04"/>
    </clipPath>
    <clipPath id="clippath-13">
      <rect class="st0" x="378.34" y="38.05" width="224.01" height="217.84"/>
    </clipPath>
    <clipPath id="clippath-14">
      <rect class="st0" x="378.34" y="206.86" width="224.01" height="2"/>
    </clipPath>
    <clipPath id="clippath-15">
      <rect class="st0" x="378.34" y="129.86" width="224.01" height="2"/>
    </clipPath>
    <clipPath id="clippath-16">
      <rect class="st0" x="378.34" y="53.86" width="224.01" height="1"/>
    </clipPath>
    <clipPath id="clippath-17">
      <rect class="st0" x="378.34" y="244.86" width="224.01" height="2"/>
    </clipPath>
    <clipPath id="clippath-18">
      <rect class="st0" x="378.34" y="167.86" width="224.01" height="2"/>
    </clipPath>
    <clipPath id="clippath-19">
      <rect class="st0" x="378.34" y="91.86" width="224.01" height="2"/>
    </clipPath>
    <clipPath id="clippath-20">
      <rect class="st0" x="438" y="23.22" width="2" height="232.67"/>
    </clipPath>
    <clipPath id="clippath-21">
      <rect class="st0" x="540" y="23.22" width="2" height="232.67"/>
    </clipPath>
    <clipPath id="clippath-22">
      <rect class="st0" x="378.34" y="23.22" width="224.01" height="232.67"/>
    </clipPath>
    <clipPath id="clippath-23">
      <rect class="st0" x="607.83" y="20.34" width="309.69" height="271.04"/>
    </clipPath>
    <clipPath id="clippath-24">
      <rect class="st0" x="688.03" y="38.05" width="224.01" height="217.84"/>
    </clipPath>
    <clipPath id="clippath-25">
      <rect class="st0" x="688.03" y="220.86" width="224.01" height="1"/>
    </clipPath>
    <clipPath id="clippath-26">
      <rect class="st0" x="688.03" y="170.86" width="224.01" height="2"/>
    </clipPath>
    <clipPath id="clippath-27">
      <rect class="st0" x="688.03" y="121.86" width="224.01" height="1"/>
    </clipPath>
    <clipPath id="clippath-28">
      <rect class="st0" x="688.03" y="71.86" width="224.01" height="2"/>
    </clipPath>
    <clipPath id="clippath-29">
      <rect class="st0" x="688.03" y="244.86" width="224.01" height="2"/>
    </clipPath>
    <clipPath id="clippath-30">
      <rect class="st0" x="688.03" y="195.86" width="224.01" height="2"/>
    </clipPath>
    <clipPath id="clippath-31">
      <rect class="st0" x="688.03" y="145.86" width="224.01" height="2"/>
    </clipPath>
    <clipPath id="clippath-32">
      <rect class="st0" x="688.03" y="96.86" width="224.01" height="2"/>
    </clipPath>
    <clipPath id="clippath-33">
      <rect class="st0" x="688.03" y="46.86" width="224.01" height="2"/>
    </clipPath>
    <clipPath id="clippath-34">
      <rect class="st0" x="748" y="23.22" width="2" height="232.67"/>
    </clipPath>
    <clipPath id="clippath-35">
      <rect class="st0" x="850" y="23.22" width="2" height="232.67"/>
    </clipPath>
    <clipPath id="clippath-36">
      <rect class="st0" x="688.03" y="23.22" width="224.01" height="232.67"/>
    </clipPath>
  </defs>
  <rect class="st58" y="14.86" width="923" height="282"/>
  <rect class="st58" y="-.76" width="923" height="297.62"/>
  <g class="st70">
    <rect class="st58" x="5.48" y="20.34" width="301.18" height="271.04"/>
    <rect class="st5" x="5.48" y="20.34" width="301.18" height="271.04"/>
  </g>
  <g class="st45">
    <rect class="st58" x="77.17" y="38.04" width="224.01" height="217.84"/>
  </g>
  <g class="st48">
    <line class="st9" x1="77.17" y1="211.37" x2="301.18" y2="211.37"/>
  </g>
  <g class="st46">
    <line class="st9" x1="77.17" y1="142.15" x2="301.18" y2="142.15"/>
  </g>
  <g class="st47">
    <line class="st9" x1="77.17" y1="72.93" x2="301.18" y2="72.93"/>
  </g>
  <g class="st53">
    <line class="st8" x1="77.17" y1="245.98" x2="301.18" y2="245.98"/>
  </g>
  <g class="st50">
    <line class="st8" x1="77.17" y1="176.76" x2="301.18" y2="176.76"/>
  </g>
  <g class="st49">
    <line class="st8" x1="77.17" y1="107.54" x2="301.18" y2="107.54"/>
  </g>
  <g class="st52">
    <line class="st8" x1="77.17" y1="38.32" x2="301.18" y2="38.32"/>
  </g>
  <g class="st51">
    <line class="st8" x1="138.26" y1="255.88" x2="138.26" y2="23.22"/>
  </g>
  <g class="st23">
    <line class="st8" x1="240.08" y1="255.88" x2="240.08" y2="23.22"/>
  </g>
  <rect class="st15" x="112.81" y="145.75" width="50.91" height="100.23"/>
  <rect class="st7" x="112.81" y="145.75" width="50.91" height="100.23"/>
  <rect class="st15" x="214.63" y="56.53" width="50.91" height="189.45"/>
  <rect class="st7" x="214.63" y="56.53" width="50.91" height="189.45"/>
  <line class="st3" x1="128.08" y1="137.25" x2="148.44" y2="137.25"/>
  <line class="st3" x1="138.26" y1="137.25" x2="138.26" y2="154.26"/>
  <line class="st3" x1="128.08" y1="154.26" x2="148.44" y2="154.26"/>
  <line class="st3" x1="229.9" y1="47.94" x2="250.27" y2="47.94"/>
  <line class="st3" x1="240.08" y1="47.94" x2="240.08" y2="65.12"/>
  <line class="st3" x1="229.9" y1="65.12" x2="250.27" y2="65.12"/>
  <g class="st20">
    <rect class="st1" x="77.17" y="23.22" width="224.01" height="232.67"/>
  </g>
  <text class="st11" transform="translate(52.12 251.26)"><tspan x="0" y="0">0</tspan></text>
  <text class="st11" transform="translate(52.12 182.04)"><tspan x="0" y="0">5</tspan></text>
  <text class="st11" transform="translate(44.12 112.82)"><tspan class="st54" x="0" y="0">1</tspan><tspan x="7.98" y="0">0</tspan></text>
  <text class="st11" transform="translate(44.12 43.6)"><tspan class="st54" x="0" y="0">1</tspan><tspan x="7.98" y="0">5</tspan></text>
  <line class="st4" x1="70.08" y1="245.98" x2="77.17" y2="245.98"/>
  <line class="st4" x1="70.08" y1="176.76" x2="77.17" y2="176.76"/>
  <line class="st4" x1="70.08" y1="107.54" x2="77.17" y2="107.54"/>
  <line class="st4" x1="70.08" y1="38.32" x2="77.17" y2="38.32"/>
  <line class="st4" x1="138.26" y1="262.97" x2="138.26" y2="255.88"/>
  <line class="st4" x1="240.08" y1="262.97" x2="240.08" y2="255.88"/>
  <text class="st11" transform="translate(109.76 283.71)"><tspan class="st64" x="0" y="0">C</tspan><tspan class="st72" x="10.01" y="0">o</tspan><tspan class="st73" x="17.99" y="0">n</tspan><tspan x="26" y="0">s</tspan><tspan class="st79" x="33" y="0">t</tspan><tspan class="st69" x="36.99" y="0">an</tspan><tspan class="st57" x="52.98" y="0">t</tspan><tspan class="st80" x="112.29" y="0">O</tspan><tspan class="st79" x="123.29" y="0">t</tspan><tspan class="st69" x="127.28" y="0">he</tspan><tspan x="143.27" y="0">r</tspan></text>
  <text class="st10" transform="translate(31.08 225.96) rotate(-90)"><tspan class="st66" x="0" y="0">N</tspan><tspan class="st76" x="11.99" y="0">u</tspan><tspan class="st61" x="20.98" y="0">m</tspan><tspan class="st59" x="33.99" y="0">ber of O</tspan><tspan class="st74" x="88.34" y="0">b</tspan><tspan x="97.33" y="0">s</tspan><tspan class="st76" x="105.33" y="0">e</tspan><tspan class="st61" x="114.33" y="0">r</tspan><tspan x="119.33" y="0">v</tspan><tspan class="st74" x="127.33" y="0">a</tspan><tspan class="st59" x="136.33" y="0">t</tspan><tspan class="st66" x="140.34" y="0">i</tspan><tspan class="st76" x="144.33" y="0">on</tspan><tspan x="162.32" y="0">s</tspan></text>
  <text class="st12" transform="translate(10.86 14.1)"><tspan x="0" y="0">A</tspan></text>
  <g class="st27">
    <rect class="st58" x="306.66" y="20.34" width="301.18" height="271.04"/>
    <rect class="st5" x="306.66" y="20.34" width="301.18" height="271.04"/>
  </g>
  <g class="st25">
    <rect class="st58" x="378.34" y="38.04" width="224.01" height="217.84"/>
  </g>
  <g class="st26">
    <line class="st9" x1="378.34" y1="207.64" x2="602.35" y2="207.64"/>
  </g>
  <g class="st24">
    <line class="st9" x1="378.34" y1="130.96" x2="602.35" y2="130.96"/>
  </g>
  <g class="st21">
    <line class="st9" x1="378.34" y1="54.28" x2="602.35" y2="54.28"/>
  </g>
  <g class="st18">
    <line class="st8" x1="378.34" y1="245.98" x2="602.35" y2="245.98"/>
  </g>
  <g class="st22">
    <line class="st8" x1="378.34" y1="169.3" x2="602.35" y2="169.3"/>
  </g>
  <g class="st19">
    <line class="st8" x1="378.34" y1="92.62" x2="602.35" y2="92.62"/>
  </g>
  <g class="st39">
    <line class="st8" x1="439.44" y1="255.88" x2="439.44" y2="23.22"/>
  </g>
  <g class="st40">
    <line class="st8" x1="541.26" y1="255.88" x2="541.26" y2="23.22"/>
  </g>
  <rect class="st15" x="413.98" y="122.01" width="50.91" height="123.97"/>
  <rect class="st7" x="413.98" y="122.01" width="50.91" height="123.97"/>
  <rect class="st15" x="515.8" y="57.48" width="50.91" height="188.5"/>
  <rect class="st7" x="515.8" y="57.48" width="50.91" height="188.5"/>
  <line class="st3" x1="429.25" y1="109.18" x2="449.62" y2="109.18"/>
  <line class="st3" x1="439.44" y1="109.18" x2="439.44" y2="134.84"/>
  <line class="st3" x1="429.25" y1="134.84" x2="449.62" y2="134.84"/>
  <line class="st3" x1="531.07" y1="47.94" x2="551.44" y2="47.94"/>
  <line class="st3" x1="541.26" y1="47.94" x2="541.26" y2="67.02"/>
  <line class="st3" x1="531.07" y1="67.02" x2="551.44" y2="67.02"/>
  <g class="st41">
    <rect class="st1" x="378.34" y="23.22" width="224.01" height="232.67"/>
  </g>
  <text class="st11" transform="translate(353.29 251.26)"><tspan x="0" y="0">0</tspan></text>
  <text class="st11" transform="translate(345.29 174.58)"><tspan class="st54" x="0" y="0">1</tspan><tspan x="7.98" y="0">0</tspan></text>
  <text class="st11" transform="translate(345.29 97.9)"><tspan class="st54" x="0" y="0">2</tspan><tspan x="7.98" y="0">0</tspan></text>
  <line class="st4" x1="371.26" y1="245.98" x2="378.34" y2="245.98"/>
  <line class="st4" x1="371.26" y1="169.3" x2="378.34" y2="169.3"/>
  <line class="st4" x1="371.26" y1="92.62" x2="378.34" y2="92.62"/>
  <line class="st4" x1="439.44" y1="262.97" x2="439.44" y2="255.88"/>
  <line class="st4" x1="541.26" y1="262.97" x2="541.26" y2="255.88"/>
  <text class="st11" transform="translate(410.94 283.71)"><tspan class="st64" x="0" y="0">C</tspan><tspan class="st72" x="10.01" y="0">o</tspan><tspan class="st69" x="17.99" y="0">n</tspan><tspan x="25.99" y="0">s</tspan><tspan class="st81" x="32.99" y="0">t</tspan><tspan class="st68" x="36.98" y="0">a</tspan><tspan class="st71" x="44.97" y="0">n</tspan><tspan class="st56" x="52.96" y="0">t</tspan><tspan class="st81" x="112.27" y="0">Ot</tspan><tspan class="st72" x="127.25" y="0">h</tspan><tspan class="st69" x="135.23" y="0">e</tspan><tspan x="143.23" y="0">r</tspan></text>
  <text class="st10" transform="translate(332.26 187.46) rotate(-90)"><tspan class="st66" x="0" y="0">N</tspan><tspan class="st76" x="11.99" y="0">u</tspan><tspan class="st61" x="20.98" y="0">m</tspan><tspan class="st59" x="33.99" y="0">ber of </tspan><tspan class="st66" x="76.32" y="0">H</tspan><tspan class="st76" x="88.31" y="0">o</tspan><tspan x="97.31" y="0">sts</tspan></text>
  <text class="st12" transform="translate(312.04 14.1)"><tspan x="0" y="0">B</tspan></text>
  <g class="st42">
    <rect class="st58" x="607.83" y="20.34" width="309.69" height="271.04"/>
    <rect class="st5" x="607.83" y="20.34" width="309.69" height="271.04"/>
  </g>
  <g class="st43">
    <rect class="st58" x="688.03" y="38.04" width="224.01" height="217.84"/>
  </g>
  <g class="st44">
    <line class="st9" x1="688.03" y1="221.23" x2="912.04" y2="221.23"/>
  </g>
  <g class="st37">
    <line class="st9" x1="688.03" y1="171.72" x2="912.04" y2="171.72"/>
  </g>
  <g class="st35">
    <line class="st9" x1="688.03" y1="122.21" x2="912.04" y2="122.21"/>
  </g>
  <g class="st38">
    <line class="st9" x1="688.03" y1="72.7" x2="912.04" y2="72.7"/>
  </g>
  <g class="st36">
    <line class="st8" x1="688.03" y1="245.98" x2="912.04" y2="245.98"/>
  </g>
  <g class="st33">
    <line class="st8" x1="688.03" y1="196.47" x2="912.04" y2="196.47"/>
  </g>
  <g class="st28">
    <line class="st8" x1="688.03" y1="146.96" x2="912.04" y2="146.96"/>
  </g>
  <g class="st29">
    <line class="st8" x1="688.03" y1="97.46" x2="912.04" y2="97.46"/>
  </g>
  <g class="st30">
    <line class="st8" x1="688.03" y1="47.94" x2="912.04" y2="47.94"/>
  </g>
  <g class="st31">
    <line class="st8" x1="749.12" y1="255.88" x2="749.12" y2="23.22"/>
  </g>
  <g class="st32">
    <line class="st8" x1="850.95" y1="255.88" x2="850.95" y2="23.22"/>
  </g>
  <rect class="st65" x="723.67" y="174.69" width="50.91" height="71.29"/>
  <rect class="st7" x="723.67" y="174.69" width="50.91" height="71.29"/>
  <rect class="st16" x="723.67" y="47.94" width="50.91" height="126.74"/>
  <rect class="st7" x="723.67" y="47.94" width="50.91" height="126.74"/>
  <rect class="st65" x="825.49" y="132.97" width="50.91" height="113.01"/>
  <rect class="st7" x="825.49" y="132.97" width="50.91" height="113.01"/>
  <rect class="st16" x="825.49" y="47.94" width="50.91" height="85.03"/>
  <rect class="st7" x="825.49" y="47.94" width="50.91" height="85.03"/>
  <g class="st34">
    <rect class="st1" x="688.03" y="23.22" width="224.01" height="232.67"/>
  </g>
  <text class="st11" transform="translate(662.98 251.26)"><tspan x="0" y="0">0</tspan></text>
  <text class="st11" transform="translate(654.98 201.75)"><tspan class="st69" x="0" y="0">2</tspan><tspan x="8" y="0">5</tspan></text>
  <text class="st11" transform="translate(654.98 152.24)"><tspan class="st69" x="0" y="0">5</tspan><tspan x="8" y="0">0</tspan></text>
  <text class="st11" transform="translate(654.98 102.74)"><tspan class="st69" x="0" y="0">7</tspan><tspan x="8" y="0">5</tspan></text>
  <text class="st11" transform="translate(646.98 53.22)"><tspan class="st69" x="0" y="0">10</tspan><tspan x="15.99" y="0">0</tspan></text>
  <line class="st4" x1="680.95" y1="245.98" x2="688.03" y2="245.98"/>
  <line class="st4" x1="680.95" y1="196.47" x2="688.03" y2="196.47"/>
  <line class="st4" x1="680.95" y1="146.96" x2="688.03" y2="146.96"/>
  <line class="st4" x1="680.95" y1="97.46" x2="688.03" y2="97.46"/>
  <line class="st4" x1="680.95" y1="47.94" x2="688.03" y2="47.94"/>
  <line class="st4" x1="749.12" y1="262.97" x2="749.12" y2="255.88"/>
  <line class="st4" x1="850.95" y1="262.97" x2="850.95" y2="255.88"/>
  <text class="st11" transform="translate(720.62 283.71)"><tspan class="st17" x="0" y="0">C</tspan><tspan class="st69" x="10.01" y="0">on</tspan><tspan x="26" y="0">s</tspan><tspan class="st81" x="33" y="0">t</tspan><tspan class="st72" x="36.99" y="0">a</tspan><tspan class="st69" x="44.97" y="0">n</tspan><tspan class="st55" x="52.97" y="0">t</tspan><tspan class="st77" x="112.3" y="0">Ot</tspan><tspan class="st69" x="127.28" y="0">h</tspan><tspan class="st72" x="135.27" y="0">e</tspan><tspan x="143.25" y="0">r</tspan></text>
  <text class="st10" transform="translate(634.16 184.46) rotate(-90)"><tspan class="st67" x="0" y="0">D</tspan><tspan class="st75" x="11.99" y="0">a</tspan><tspan class="st63" x="20.98" y="0">t</tspan><tspan class="st78" x="24.98" y="0">a</tspan><tspan class="st60" x="33.99" y="0"> </tspan><tspan class="st62" x="38" y="0">T</tspan><tspan x="47.01" y="0">y</tspan><tspan class="st76" x="55.01" y="0">p</tspan><tspan x="64" y="0">e (%)</tspan></text>
  <text class="st12" transform="translate(613.08 14.1)"><tspan x="0" y="0">C</tspan></text>
  <line class="st6" x1="138.23" y1="37.71" x2="240.27" y2="37.71"/>
  <line class="st6" x1="240.08" y1="45.44" x2="240.08" y2="37.71"/>
  <line class="st6" x1="138" y1="132.63" x2="138" y2="37.84"/>
  <text/>
  <line class="st6" x1="439.44" y1="37.77" x2="541.48" y2="37.77"/>
  <line class="st6" x1="541.3" y1="45.51" x2="541.3" y2="37.77"/>
  <line class="st6" x1="439.21" y1="102.74" x2="439.21" y2="37.9"/>
  <line class="st2" x1="749.06" y1="42.14" x2="749.06" y2="35.95"/>
  <line class="st2" x1="851" y1="42.14" x2="851" y2="35.95"/>
  <text class="st13" transform="translate(791.03 33.95)"><tspan x="0" y="0">ns</tspan></text>
  <line class="st6" x1="749.02" y1="35.95" x2="851.06" y2="35.95"/>
  <text class="st14" transform="translate(479.23 39.05)"><tspan x="0" y="0">***</tspan></text>
  <text class="st14" transform="translate(175.95 39.05)"><tspan x="0" y="0">***</tspan></text>
  <text class="st13" transform="translate(891.38 202) rotate(-89.98)"><tspan x="0" y="0" xml:space="preserve">raw                probability</tspan></text>
</svg>